<svg xmlns="http://www.w3.org/2000/svg" width="240" height="60" viewBox="0 0 240 60" fill="none">
  <!-- Shield icon (scaled and centered) -->
  <g transform="translate(0, 5) scale(1.5)" stroke="black" stroke-width="2" stroke-linecap="round" stroke-linejoin="round">
    <path d="M20 13c0 5-3.5 7.5-7.66 8.95a1 1 0 0 1-.67-.01C7.5 20.5 4 18 4 13V6a1 1 0 0 1 1-1c2 0 4.5-1.2 6.24-2.72a1.17 1.17 0 0 1 1.52 0C14.51 3.81 17 5 19 5a1 1 0 0 1 1 1z"/>
  </g>

  <!-- Trending-up arrow (your original, smaller and repositioned) -->
  <g transform="translate(25, 28) scale(0.6)" stroke="black" stroke-width="2" stroke-linecap="round" stroke-linejoin="round">
    <path d="M16 7h6v6"/>
    <path d="M22 7l-8.5 8.5-5-5L2 17"/>
  </g>

  <!-- Text: SecureLend -->
  <text x="50" y="22" font-family="Inter, sans-serif" font-size="24" font-weight="bold" fill="black">SecureLend</text>

  <!-- Text: AI -->
  <text x="50" y="42" font-family="Inter, sans-serif" font-size="14" font-weight="light" fill="black">AI</text>
</svg>
